<svg xmlns="http://www.w3.org/2000/svg" xmlns:xlink="http://www.w3.org/1999/xlink" id="Layer_1" width="100%" x="0" y="0" enable-background="new 0 0 347 408" version="1.1" viewBox="0 0 347 408" xml:space="preserve"><path fill="#FFF" stroke="none" d="M348.000000,118.000000 C348.000000,215.333313 348.000000,312.166626 348.000000,408.999939 C232.333374,408.999969 116.666740,408.999969 1.000086,409.000000 C1.000057,273.000061 1.000057,137.000122 1.000028,1.000140 C116.666588,1.000093 232.333176,1.000093 347.999878,1.000047 C348.000000,39.833332 348.000000,78.666664 348.000000,118.000000 M21.000000,255.500000 C21.000000,301.594360 21.000000,347.688751 21.000000,393.712402 C123.977135,393.712402 226.379745,393.712402 328.712830,393.712402 C328.712830,268.022614 328.712830,142.620636 328.712830,17.287613 C226.022827,17.287613 123.620224,17.287613 21.000000,17.287613 C21.000000,96.550018 21.000000,175.525009 21.000000,255.500000 z" opacity="1"/><path fill="#000" stroke="none" d="M21.000000,255.000000 C21.000000,175.525009 21.000000,96.550018 21.000000,17.287613 C123.620224,17.287613 226.022827,17.287613 328.712830,17.287613 C328.712830,142.620636 328.712830,268.022614 328.712830,393.712402 C226.379745,393.712402 123.977135,393.712402 21.000000,393.712402 C21.000000,347.688751 21.000000,301.594360 21.000000,255.000000 M293.500000,227.000000 C286.387115,227.000000 279.274231,227.000000 272.330658,227.000000 C269.708252,248.708237 267.152557,269.864166 264.596863,291.020081 C264.220764,291.003723 263.844666,290.987396 263.468536,290.971069 C260.596985,269.690582 257.725433,248.410110 254.878098,227.309067 C240.314026,227.309067 226.241608,227.309067 212.303833,227.309067 C212.303833,273.017822 212.303833,318.416931 212.303833,363.693787 C222.016342,363.693787 231.422180,363.693787 241.193573,363.693787 C241.193573,335.079895 241.193573,306.770813 241.193573,278.461700 C241.610275,278.419067 242.026962,278.376465 242.443665,278.333832 C246.329407,306.815552 250.215164,335.297272 254.100403,363.775330 C260.903809,363.775330 267.340546,363.775330 273.888153,363.775330 C277.775055,332.718536 281.636078,301.868256 285.497131,271.017975 C285.937408,271.037689 286.377686,271.057404 286.817963,271.077118 C286.817963,301.982574 286.817963,332.888031 286.817963,363.708740 C296.652405,363.708740 305.724548,363.708740 314.713989,363.708740 C314.713989,318.017944 314.713989,272.618958 314.713989,227.000000 C307.786316,227.000000 301.143097,227.000000 293.500000,227.000000 M198.999863,265.753906 C198.666550,262.170959 198.332901,258.588043 197.999985,255.005066 C196.936752,243.562134 189.058487,232.103760 178.075668,227.918625 C170.219284,224.924866 162.436188,223.860519 153.963593,224.837036 C141.190948,226.309143 128.206039,234.688736 125.116524,247.205490 C123.304008,254.548645 122.188103,262.257599 122.152313,269.808594 C122.050873,291.212708 122.622360,312.621033 123.018318,334.026062 C123.222198,345.047424 128.167862,353.765137 137.078842,359.937317 C147.364609,367.061737 158.928360,368.241974 170.936874,365.561127 C185.439377,362.323486 194.403564,353.267487 197.553131,338.841675 C198.663147,333.757477 198.895035,328.409729 198.938538,323.177429 C199.095078,304.356537 199.000000,285.533508 198.999863,265.753906 M106.981956,304.801147 C104.092720,297.752716 97.900169,294.927490 90.187653,292.939789 C92.402260,292.031799 93.473801,291.303802 94.614822,291.170532 C103.418228,290.142029 107.788445,285.042206 107.966782,276.408112 C108.152214,267.430298 109.094444,258.272156 107.711266,249.507614 C105.991432,238.609802 99.839645,230.157837 87.748199,229.059555 C77.123207,228.094482 66.456116,227.510773 55.794937,227.055435 C48.894966,226.760712 41.972187,227.000000 35.328896,227.000000 C35.328896,273.097015 35.328896,318.482025 35.328896,363.674133 C46.396095,363.674133 57.132362,363.674133 68.211319,363.674133 C68.211319,342.927155 68.211319,322.504578 68.211319,302.084564 C72.246498,302.000275 76.481415,301.002411 77.893227,305.905121 C78.689873,308.671631 78.929932,311.674408 78.953400,314.574524 C79.059845,327.731781 79.000000,340.890411 79.000000,354.048523 C79.000000,357.313171 79.000000,360.577789 79.000000,363.698547 C89.346062,363.698547 99.081947,363.698547 109.000000,363.698547 C109.000000,346.926636 109.088005,330.454559 108.914833,313.985199 C108.885399,311.184937 107.735596,308.396393 106.981956,304.801147 M54.000000,101.476921 C54.000000,82.384819 54.000000,63.292713 54.000000,43.811729 C72.993256,43.811729 91.402496,43.811729 109.703865,43.811729 C109.703865,40.003361 109.703865,36.596073 109.703865,33.295700 C86.337326,33.295700 63.268074,33.295700 40.289146,33.295700 C40.289146,91.656570 40.289146,149.721298 40.289146,207.712891 C63.984226,207.712891 87.389069,207.712891 110.708450,207.712891 C110.708450,203.678940 110.708450,199.938095 110.708450,195.813873 C91.680061,195.813873 72.940300,195.813873 54.292351,195.813873 C54.292351,171.677933 54.292351,147.941833 54.292351,123.813034 C71.990562,123.813034 89.399467,123.813034 106.704056,123.813034 C106.704056,119.670425 106.704056,115.929489 106.704056,111.805008 C89.004318,111.805008 71.597504,111.805008 54.000000,111.805008 C54.000000,108.428383 54.000000,105.447372 54.000000,101.476921 M205.482849,196.000000 C184.729691,196.000000 163.976532,196.000000 142.827682,196.000000 C149.418381,182.175095 155.611603,168.801788 162.128372,155.588028 C179.486298,120.392059 196.864914,85.204941 214.544159,50.170151 C217.431229,44.448837 216.997055,38.959801 216.744080,33.296700 C186.971695,33.296700 157.577271,33.296700 128.299667,33.296700 C128.299667,37.007572 128.299667,40.414204 128.299667,44.129295 C153.006134,44.129295 177.414627,44.129295 202.409744,44.129295 C201.749893,45.933643 201.385544,47.312775 200.766541,48.566120 C187.663849,75.096054 174.544739,101.617905 161.402740,128.128403 C151.257004,148.594742 141.379807,169.203796 130.729095,189.404510 C127.428574,195.664444 128.310272,201.583359 128.104813,207.707489 C158.017120,207.707489 187.410980,207.707489 216.704880,207.707489 C216.704880,203.669479 216.704880,199.929749 216.704880,196.000000 C213.101318,196.000000 209.789093,196.000000 205.482849,196.000000 M255.000000,71.500000 C255.000000,62.402538 255.000000,53.305077 255.000000,43.824562 C273.980072,43.824562 292.389038,43.824562 310.710754,43.824562 C310.710754,40.016571 310.710754,36.609577 310.710754,33.288689 C287.684601,33.288689 264.948853,33.288689 242.281189,33.288689 C242.281189,91.641861 242.281189,149.705917 242.281189,207.721085 C265.967834,207.721085 289.372223,207.721085 312.716980,207.721085 C312.716980,203.695908 312.716980,199.956833 312.716980,195.830933 C293.364227,195.830933 274.291290,195.830933 255.283173,195.830933 C255.283173,171.695877 255.283173,147.960159 255.283173,123.831482 C272.971649,123.831482 290.380310,123.831482 307.713715,123.831482 C307.713715,119.689156 307.713715,115.948502 307.713715,111.824188 C290.023987,111.824188 272.617279,111.824188 255.000000,111.824188 C255.000000,98.451035 255.000000,85.475517 255.000000,71.500000 z" opacity="1"/><path fill="#FFF" stroke="none" d="M293.999939,227.000000 C301.143097,227.000000 307.786316,227.000000 314.713989,227.000000 C314.713989,272.618958 314.713989,318.017944 314.713989,363.708740 C305.724548,363.708740 296.652405,363.708740 286.817963,363.708740 C286.817963,332.888031 286.817963,301.982574 286.817963,271.077118 C286.377686,271.057404 285.937408,271.037689 285.497131,271.017975 C281.636078,301.868256 277.775055,332.718536 273.888153,363.775330 C267.340546,363.775330 260.903809,363.775330 254.100403,363.775330 C250.215164,335.297272 246.329407,306.815552 242.443665,278.333832 C242.026962,278.376465 241.610275,278.419067 241.193573,278.461700 C241.193573,306.770813 241.193573,335.079895 241.193573,363.693787 C231.422180,363.693787 222.016342,363.693787 212.303833,363.693787 C212.303833,318.416931 212.303833,273.017822 212.303833,227.309067 C226.241608,227.309067 240.314026,227.309067 254.878098,227.309067 C257.725433,248.410110 260.596985,269.690582 263.468536,290.971069 C263.844666,290.987396 264.220764,291.003723 264.596863,291.020081 C267.152557,269.864166 269.708252,248.708237 272.330658,227.000000 C279.274231,227.000000 286.387115,227.000000 293.999939,227.000000 z" opacity="1"/><path fill="#FFF" stroke="none" d="M198.999939,266.232605 C199.000000,285.533508 199.095078,304.356537 198.938538,323.177429 C198.895035,328.409729 198.663147,333.757477 197.553131,338.841675 C194.403564,353.267487 185.439377,362.323486 170.936874,365.561127 C158.928360,368.241974 147.364609,367.061737 137.078842,359.937317 C128.167862,353.765137 123.222198,345.047424 123.018318,334.026062 C122.622360,312.621033 122.050873,291.212708 122.152313,269.808594 C122.188103,262.257599 123.304008,254.548645 125.116524,247.205490 C128.206039,234.688736 141.190948,226.309143 153.963593,224.837036 C162.436188,223.860519 170.219284,224.924866 178.075668,227.918625 C189.058487,232.103760 196.936752,243.562134 197.999985,255.005066 C198.332901,258.588043 198.666550,262.170959 198.999939,266.232605 M155.000000,297.500000 C155.000000,299.498932 154.999985,301.497864 155.000015,303.496796 C155.000168,315.157257 154.934296,326.818359 155.043976,338.477814 C155.073792,341.647858 156.058731,344.150360 160.188278,344.074341 C164.109482,344.002075 164.700699,341.460449 164.969040,338.601837 C165.413849,333.863312 165.929672,329.108093 165.954407,324.357513 C166.061035,303.868958 166.052322,283.379272 165.954117,262.890625 C165.935364,258.975616 165.525208,255.028763 164.863800,251.170639 C164.659958,249.981735 163.217834,248.586777 162.007034,248.064835 C157.860352,246.277237 155.032364,248.913330 155.014603,254.522354 C154.970276,268.514771 155.000000,282.507446 155.000000,297.500000 z" opacity="1"/><path fill="#FFF" stroke="none" d="M107.042679,305.201782 C107.735596,308.396393 108.885399,311.184937 108.914833,313.985199 C109.088005,330.454559 109.000000,346.926636 109.000000,363.698547 C99.081947,363.698547 89.346062,363.698547 79.000000,363.698547 C79.000000,360.577789 79.000000,357.313171 79.000000,354.048523 C79.000000,340.890411 79.059845,327.731781 78.953400,314.574524 C78.929932,311.674408 78.689873,308.671631 77.893227,305.905121 C76.481415,301.002411 72.246498,302.000275 68.211319,302.084564 C68.211319,322.504578 68.211319,342.927155 68.211319,363.674133 C57.132362,363.674133 46.396095,363.674133 35.328896,363.674133 C35.328896,318.482025 35.328896,273.097015 35.328896,227.000000 C41.972187,227.000000 48.894966,226.760712 55.794937,227.055435 C66.456116,227.510773 77.123207,228.094482 87.748199,229.059555 C99.839645,230.157837 105.991432,238.609802 107.711266,249.507614 C109.094444,258.272156 108.152214,267.430298 107.966782,276.408112 C107.788445,285.042206 103.418228,290.142029 94.614822,291.170532 C93.473801,291.303802 92.402260,292.031799 90.187653,292.939789 C97.900169,294.927490 104.092720,297.752716 107.042679,305.201782 M68.000000,266.497467 C68.000000,271.268524 68.000000,276.039551 68.000000,280.774323 C77.007706,281.294067 78.917534,279.755981 78.992218,272.240967 C79.035110,267.925171 79.011681,263.608582 78.997375,259.292389 C78.973457,252.077850 75.432587,249.235840 68.000000,250.639313 C68.000000,255.567444 68.000000,260.533752 68.000000,266.497467 z" opacity="1"/><path fill="#FFF" stroke="none" d="M54.000000,101.971649 C54.000000,105.447372 54.000000,108.428383 54.000000,111.805008 C71.597504,111.805008 89.004318,111.805008 106.704056,111.805008 C106.704056,115.929489 106.704056,119.670425 106.704056,123.813034 C89.399467,123.813034 71.990562,123.813034 54.292351,123.813034 C54.292351,147.941833 54.292351,171.677933 54.292351,195.813873 C72.940300,195.813873 91.680061,195.813873 110.708450,195.813873 C110.708450,199.938095 110.708450,203.678940 110.708450,207.712891 C87.389069,207.712891 63.984226,207.712891 40.289146,207.712891 C40.289146,149.721298 40.289146,91.656570 40.289146,33.295700 C63.268074,33.295700 86.337326,33.295700 109.703865,33.295700 C109.703865,36.596073 109.703865,40.003361 109.703865,43.811729 C91.402496,43.811729 72.993256,43.811729 54.000000,43.811729 C54.000000,63.292713 54.000000,82.384819 54.000000,101.971649 z" opacity="1"/><path fill="#FFF" stroke="none" d="M205.979858,196.000000 C209.789093,196.000000 213.101318,196.000000 216.704880,196.000000 C216.704880,199.929749 216.704880,203.669479 216.704880,207.707489 C187.410980,207.707489 158.017120,207.707489 128.104813,207.707489 C128.310272,201.583359 127.428574,195.664444 130.729095,189.404510 C141.379807,169.203796 151.257004,148.594742 161.402740,128.128403 C174.544739,101.617905 187.663849,75.096054 200.766541,48.566120 C201.385544,47.312775 201.749893,45.933643 202.409744,44.129295 C177.414627,44.129295 153.006134,44.129295 128.299667,44.129295 C128.299667,40.414204 128.299667,37.007572 128.299667,33.296700 C157.577271,33.296700 186.971695,33.296700 216.744080,33.296700 C216.997055,38.959801 217.431229,44.448837 214.544159,50.170151 C196.864914,85.204941 179.486298,120.392059 162.128372,155.588028 C155.611603,168.801788 149.418381,182.175095 142.827682,196.000000 C163.976532,196.000000 184.729691,196.000000 205.979858,196.000000 z" opacity="1"/><path fill="#FFF" stroke="none" d="M255.000000,72.000000 C255.000000,85.475517 255.000000,98.451035 255.000000,111.824188 C272.617279,111.824188 290.023987,111.824188 307.713715,111.824188 C307.713715,115.948502 307.713715,119.689156 307.713715,123.831482 C290.380310,123.831482 272.971649,123.831482 255.283173,123.831482 C255.283173,147.960159 255.283173,171.695877 255.283173,195.830933 C274.291290,195.830933 293.364227,195.830933 312.716980,195.830933 C312.716980,199.956833 312.716980,203.695908 312.716980,207.721085 C289.372223,207.721085 265.967834,207.721085 242.281189,207.721085 C242.281189,149.705917 242.281189,91.641861 242.281189,33.288689 C264.948853,33.288689 287.684601,33.288689 310.710754,33.288689 C310.710754,36.609577 310.710754,40.016571 310.710754,43.824562 C292.389038,43.824562 273.980072,43.824562 255.000000,43.824562 C255.000000,53.305077 255.000000,62.402538 255.000000,72.000000 z" opacity="1"/><path fill="#000" stroke="none" d="M155.000000,297.000000 C155.000000,282.507446 154.970276,268.514771 155.014603,254.522354 C155.032364,248.913330 157.860352,246.277237 162.007034,248.064835 C163.217834,248.586777 164.659958,249.981735 164.863800,251.170639 C165.525208,255.028763 165.935364,258.975616 165.954117,262.890625 C166.052322,283.379272 166.061035,303.868958 165.954407,324.357513 C165.929672,329.108093 165.413849,333.863312 164.969040,338.601837 C164.700699,341.460449 164.109482,344.002075 160.188278,344.074341 C156.058731,344.150360 155.073792,341.647858 155.043976,338.477814 C154.934296,326.818359 155.000168,315.157257 155.000015,303.496796 C154.999985,301.497864 155.000000,299.498932 155.000000,297.000000 z" opacity="1"/><path fill="#000" stroke="none" d="M68.000000,265.998779 C68.000000,260.533752 68.000000,255.567444 68.000000,250.639313 C75.432587,249.235840 78.973457,252.077850 78.997375,259.292389 C79.011681,263.608582 79.035110,267.925171 78.992218,272.240967 C78.917534,279.755981 77.007706,281.294067 68.000000,280.774323 C68.000000,276.039551 68.000000,271.268524 68.000000,265.998779 z" opacity="1"/></svg>